<svg xmlns="http://www.w3.org/2000/svg" viewBox="0 0 320 200" style="--dur:7s" role="img" aria-labelledby="t d">
  <title id="t">Voyalier</title>
  <desc id="d">The Voyalier folded-route mark above the letterspaced wordmark.</desc>
  <style>
    .ink { fill: #f2ede1; }
    .fold { fill: #93a0b8; }
    .word { fill: #f2ede1; }
    .trace {
      fill: none; stroke: #c34e33; stroke-width: 1.6;
      stroke-linecap: round; stroke-linejoin: round;
      stroke-dasharray: 128; stroke-dashoffset: 128; opacity: 0;
      animation: voy-trace var(--dur) ease-in-out infinite;
    }
    .fold {
      transform-box: view-box; transform-origin: 50px 80px;
      animation: voy-breath var(--dur) ease-in-out infinite;
    }
    .dot {
      fill: #c34e33; transform-box: fill-box; transform-origin: center;
      animation: voy-arrive var(--dur) ease-in-out infinite;
    }
    .halo {
      fill: none; stroke: #c34e33; stroke-width: 1.2; opacity: 0;
      transform-box: fill-box; transform-origin: center;
      animation: voy-ping var(--dur) ease-in-out infinite;
    }
    .sheen { animation: voy-sheen var(--dur) ease-in-out infinite; }
    @keyframes voy-trace {
      0% { stroke-dashoffset: 128; opacity: 0; }
      5% { opacity: .85; }
      36% { stroke-dashoffset: 0; opacity: .85; }
      52% { stroke-dashoffset: 0; opacity: 0; }
      56%, 100% { stroke-dashoffset: 128; opacity: 0; }
    }
    @keyframes voy-breath {
      0%, 36%, 74%, 100% { transform: skewX(0) scaleY(1); }
      54% { transform: skewX(-1.8deg) scaleY(.986); }
    }
    @keyframes voy-arrive {
      0%, 33% { transform: scale(1); }
      41% { transform: scale(1.16); }
      50%, 100% { transform: scale(1); }
    }
    @keyframes voy-ping {
      0%, 35% { transform: scale(.5); opacity: 0; }
      42% { transform: scale(1); opacity: .5; }
      60% { transform: scale(2); opacity: 0; }
      61%, 100% { transform: scale(.5); opacity: 0; }
    }
    @keyframes voy-sheen {
      0%, 55% { transform: translateX(0); }
      82%, 100% { transform: translateX(160px); }
    }
    @media (prefers-reduced-motion: reduce) {
      .trace, .fold, .dot, .halo, .sheen { animation: none; }
    }
  </style>
  <svg x="100" y="8" width="120" height="120" viewBox="0 0 96 96" overflow="visible">
    <polygon class="ink" points="22,18 38,18 58,80 42,80"/>
    <polygon class="fold" points="42,80 58,80 73.5,32 57.5,32"/>
    <polyline class="trace" points="30,18 50,80 69,21"/>
    <circle class="halo" cx="69" cy="21" r="5"/>
    <circle class="dot" cx="69" cy="21" r="5"/>
    <defs>
      <linearGradient id="shg" x1="0" y1="0" x2="1" y2="0">
        <stop offset="0" stop-color="#ffffff" stop-opacity="0"/>
        <stop offset=".5" stop-color="#ffffff" stop-opacity=".3"/>
        <stop offset="1" stop-color="#ffffff" stop-opacity="0"/>
      </linearGradient>
      <clipPath id="shc">
        <polygon points="22,18 38,18 58,80 42,80"/>
        <polygon points="42,80 58,80 73.5,32 57.5,32"/>
        <circle cx="69" cy="21" r="5"/>
      </clipPath>
    </defs>
    <g clip-path="url(#shc)"><g transform="rotate(20 48 48)"><rect class="sheen" x="-40" y="-40" width="34" height="176" fill="url(#shg)"/></g></g>
  </svg>
  <path class="word" d="M88.51 178 82.92 162.6H85.1L89.5 175.16L93.92 162.6H96.1L90.49 178ZM111.92 178.33Q109.83 178.33 108.22 177.34Q106.62 176.35 105.7 174.55Q104.79 172.74 104.79 170.3Q104.79 167.86 105.7 166.04Q106.62 164.23 108.22 163.23Q109.83 162.23 111.92 162.23Q114.01 162.23 115.6 163.23Q117.2 164.23 118.11 166.04Q119.03 167.86 119.03 170.3Q119.03 172.74 118.11 174.55Q117.2 176.35 115.6 177.34Q114.01 178.33 111.92 178.33ZM111.92 176.35Q113.42 176.35 114.55 175.6Q115.68 174.85 116.31 173.5Q116.94 172.15 116.94 170.3Q116.94 168.43 116.31 167.08Q115.68 165.72 114.55 164.98Q113.42 164.23 111.92 164.23Q110.42 164.23 109.29 164.98Q108.16 165.72 107.52 167.08Q106.88 168.43 106.88 170.3Q106.88 172.15 107.52 173.5Q108.16 174.85 109.29 175.6Q110.42 176.35 111.92 176.35ZM133.1 178V171.44L127.96 162.6H130.29L134.14 169.24L137.94 162.6H140.3L135.15 171.44V178ZM148.59 178 154.6 162.6H156.38L162.39 178H160.12L158.65 174.06H152.29L150.81 178ZM152.97 172.17H157.97L155.5 165.48ZM171.87 178V162.6H173.87V176.11H182.12V178ZM191.8 178V162.6H193.8V178ZM204.67 178V162.6H214.64V164.49H206.67V169.18H213.93V171.09H206.67V176.11H214.9V178ZM224.98 178V162.6H231.86Q234.04 162.6 235.24 163.61Q236.44 164.62 236.44 166.82Q236.44 168.78 235.49 169.82Q234.55 170.85 232.74 171.03L236.33 178H233.98L230.63 171.11H226.98V178ZM226.98 169.2H231.62Q232.94 169.2 233.63 168.64Q234.33 168.08 234.33 166.82Q234.33 165.59 233.63 165.04Q232.94 164.49 231.62 164.49H226.98Z"/>
</svg>
