<svg xmlns="http://www.w3.org/2000/svg" viewBox="0 0 320 200" style="--dur:7s" role="img" aria-labelledby="t d">
  <title id="t">Voyalier</title>
  <desc id="d">The Voyalier folded-route mark above the letterspaced wordmark.</desc>
  <style>
    .ink { fill: #f2ede1; }
    .fold { fill: #93a0b8; }
    .word { fill: #f2ede1; }
    /* Seamless one-cycle loop: ink traces the route, the traveler arrives,
       the paper exhales, then a long stillness. At rest (0%/100%) the mark is
       complete, so it also reads correctly frozen or under reduced motion. */
    .trace {
      fill: none; stroke: #c34e33; stroke-width: 1.6;
      stroke-linecap: round; stroke-linejoin: round;
      stroke-dasharray: 128; stroke-dashoffset: 128; opacity: 0;
      animation: voy-trace var(--dur) ease-in-out infinite;
    }
    .fold {
      transform-box: view-box; transform-origin: 50px 80px;
      animation: voy-breath var(--dur) ease-in-out infinite;
    }
    .dot {
      fill: #c34e33; transform-box: fill-box; transform-origin: center;
      animation: voy-arrive var(--dur) ease-in-out infinite;
    }
    .halo {
      fill: none; stroke: #c34e33; stroke-width: 1.2; opacity: 0;
      transform-box: fill-box; transform-origin: center;
      animation: voy-ping var(--dur) ease-in-out infinite;
    }
    .sheen { animation: voy-sheen var(--dur) ease-in-out infinite; }
    @keyframes voy-trace {
      0% { stroke-dashoffset: 128; opacity: 0; }
      5% { opacity: .85; }
      36% { stroke-dashoffset: 0; opacity: .85; }
      52% { stroke-dashoffset: 0; opacity: 0; }
      56%, 100% { stroke-dashoffset: 128; opacity: 0; }
    }
    @keyframes voy-breath {
      0%, 36%, 74%, 100% { transform: skewX(0) scaleY(1); }
      54% { transform: skewX(-1.8deg) scaleY(.986); }
    }
    @keyframes voy-arrive {
      0%, 33% { transform: scale(1); }
      41% { transform: scale(1.16); }
      50%, 100% { transform: scale(1); }
    }
    @keyframes voy-ping {
      0%, 35% { transform: scale(.5); opacity: 0; }
      42% { transform: scale(1); opacity: .5; }
      60% { transform: scale(2); opacity: 0; }
      61%, 100% { transform: scale(.5); opacity: 0; }
    }
    @keyframes voy-sheen {
      0%, 55% { transform: translateX(0); }
      82%, 100% { transform: translateX(160px); }
    }
    @media (prefers-reduced-motion: reduce) {
      .trace, .fold, .dot, .halo, .sheen { animation: none; }
    }
  </style>
  <svg x="100" y="8" width="120" height="120" viewBox="0 0 96 96" overflow="visible">
    <polygon class="ink" points="22,18 38,18 58,80 42,80"/>
    <polygon class="fold" points="42,80 58,80 73.5,32 57.5,32"/>
    <polyline class="trace" points="30,18 50,80 69,21"/>
    <circle class="halo" cx="69" cy="21" r="5"/>
    <circle class="dot" cx="69" cy="21" r="5"/>
    <defs>
      <linearGradient id="shg" x1="0" y1="0" x2="1" y2="0">
        <stop offset="0" stop-color="#ffffff" stop-opacity="0"/>
        <stop offset=".5" stop-color="#ffffff" stop-opacity=".3"/>
        <stop offset="1" stop-color="#ffffff" stop-opacity="0"/>
      </linearGradient>
      <clipPath id="shc">
        <polygon points="22,18 38,18 58,80 42,80"/>
        <polygon points="42,80 58,80 73.5,32 57.5,32"/>
        <circle cx="69" cy="21" r="5"/>
      </clipPath>
    </defs>
    <g clip-path="url(#shc)"><g transform="rotate(20 48 48)"><rect class="sheen" x="-40" y="-40" width="34" height="176" fill="url(#shg)"/></g></g>
  </svg>
  <g class="word">
    <path transform="translate(82.615 178.0) scale(0.02200 -0.02200)" d="M268 0 14 700H113L313 129L514 700H613L358 0Z"/>
    <path transform="translate(103.889 178.0) scale(0.02200 -0.02200)" d="M365 -15Q270 -15 197.0 30.0Q124 75 82.5 157.0Q41 239 41 350Q41 461 82.5 543.5Q124 626 197.0 671.5Q270 717 365 717Q460 717 532.5 671.5Q605 626 646.5 543.5Q688 461 688 350Q688 239 646.5 157.0Q605 75 532.5 30.0Q460 -15 365 -15ZM365 75Q433 75 484.5 109.0Q536 143 564.5 204.5Q593 266 593 350Q593 435 564.5 496.5Q536 558 484.5 592.0Q433 626 365 626Q297 626 245.5 592.0Q194 558 165.0 496.5Q136 435 136 350Q136 266 165.0 204.5Q194 143 245.5 109.0Q297 75 365 75Z"/>
    <path transform="translate(127.429 178.0) scale(0.02200 -0.02200)" d="M258 0V298L24 700H130L305 398L478 700H585L351 298V0Z"/>
    <path transform="translate(148.285 178.0) scale(0.02200 -0.02200)" d="M14 0 287 700H368L641 0H538L471 179H182L115 0ZM213 265H440L328 569Z"/>
    <path transform="translate(170.175 178.0) scale(0.02200 -0.02200)" d="M77 0V700H168V86H543V0Z"/>
    <path transform="translate(190.107 178.0) scale(0.02200 -0.02200)" d="M77 0V700H168V0Z"/>
    <path transform="translate(202.977 178.0) scale(0.02200 -0.02200)" d="M77 0V700H530V614H168V401H498V314H168V86H542V0Z"/>
    <path transform="translate(223.283 178.0) scale(0.02200 -0.02200)" d="M77 0V700H390Q489 700 543.5 654.0Q598 608 598 508Q598 419 555.0 372.0Q512 325 430 317L593 0H486L334 313H168V0ZM168 400H379Q439 400 470.5 425.5Q502 451 502 508Q502 564 470.5 589.0Q439 614 379 614H168Z"/>
  </g>
</svg>
